<svg xmlns="http://www.w3.org/2000/svg" width="1825" height="873" viewBox="0 0 1825 873" role="img" aria-label="ToDiagram Export"><style type="text/css"><![CDATA[
@import url('https://fonts.googleapis.com/css2?family=Geist+Mono:wght@100..900&display=swap');
svg { text-rendering: optimizeLegibility; shape-rendering: geometricPrecision; }
]]></style><defs><clipPath id="clip-1"><path d="M 16 34 h 671 a 4 4 0 0 1 4 4 v 282.75 a 4 4 0 0 1 -4 4 h -671 a 4 4 0 0 1 -4 -4 v -282.75 a 4 4 0 0 1 4 -4 Z"/></clipPath><clipPath id="clip-2"><path d="M 28 202.5 h 292 a 4 4 0 0 1 4 4 v 85 a 4 4 0 0 1 -4 4 h -292 a 4 4 0 0 1 -4 -4 v -85 a 4 4 0 0 1 4 -4 Z"/></clipPath><clipPath id="clip-3"><path d="M 348 214.5 h 327 a 4 4 0 0 1 4 4 v 61 a 4 4 0 0 1 -4 4 h -327 a 4 4 0 0 1 -4 -4 v -61 a 4 4 0 0 1 4 -4 Z"/></clipPath><clipPath id="clip-4"><path d="M 398 108.25 h 277 a 4 4 0 0 1 4 4 v 61 a 4 4 0 0 1 -4 4 h -277 a 4 4 0 0 1 -4 -4 v -61 a 4 4 0 0 1 4 -4 Z"/></clipPath><clipPath id="clip-5"><path d="M 725 117.75 h 673 a 4 4 0 0 1 4 4 v 320.75 a 4 4 0 0 1 -4 4 h -673 a 4 4 0 0 1 -4 -4 v -320.75 a 4 4 0 0 1 4 -4 Z"/></clipPath><clipPath id="clip-6"><path d="M 737 209.5 h 302 a 4 4 0 0 1 4 4 v 61 a 4 4 0 0 1 -4 4 h -302 a 4 4 0 0 1 -4 -4 v -61 a 4 4 0 0 1 4 -4 Z"/></clipPath><clipPath id="clip-7"><path d="M 1067 323.25 h 319 a 4 4 0 0 1 4 4 v 86 a 4 4 0 0 1 -4 4 h -319 a 4 4 0 0 1 -4 -4 v -86 a 4 4 0 0 1 4 -4 Z"/></clipPath><clipPath id="clip-8"><path d="M 1084 192 h 285 a 4 4 0 0 1 4 4 v 86 a 4 4 0 0 1 -4 4 h -285 a 4 4 0 0 1 -4 -4 v -86 a 4 4 0 0 1 4 -4 Z"/></clipPath><clipPath id="clip-9"><path d="M 1456 466 h 326 a 4 4 0 0 1 4 4 v 377 a 4 4 0 0 1 -4 4 h -326 a 4 4 0 0 1 -4 -4 v -377 a 4 4 0 0 1 4 -4 Z"/></clipPath><clipPath id="clip-10"><path d="M 1468 646.5 h 252 a 4 4 0 0 1 4 4 v 61 a 4 4 0 0 1 -4 4 h -252 a 4 4 0 0 1 -4 -4 v -61 a 4 4 0 0 1 4 -4 Z"/></clipPath><clipPath id="clip-11"><path d="M 1468 752.75 h 302 a 4 4 0 0 1 4 4 v 61 a 4 4 0 0 1 -4 4 h -302 a 4 4 0 0 1 -4 -4 v -61 a 4 4 0 0 1 4 -4 Z"/></clipPath><clipPath id="clip-12"><path d="M 1527 540.25 h 243 a 4 4 0 0 1 4 4 v 61 a 4 4 0 0 1 -4 4 h -243 a 4 4 0 0 1 -4 -4 v -61 a 4 4 0 0 1 4 -4 Z"/></clipPath><clipPath id="clip-13"><path d="M 1456 12 h 343 a 4 4 0 0 1 4 4 v 426 a 4 4 0 0 1 -4 4 h -343 a 4 4 0 0 1 -4 -4 v -426 a 4 4 0 0 1 4 -4 Z"/></clipPath><clipPath id="clip-14"><path d="M 1468 86.25 h 243 a 4 4 0 0 1 4 4 v 86 a 4 4 0 0 1 -4 4 h -243 a 4 4 0 0 1 -4 -4 v -86 a 4 4 0 0 1 4 -4 Z"/></clipPath><clipPath id="clip-15"><path d="M 1468 217.5 h 319 a 4 4 0 0 1 4 4 v 61 a 4 4 0 0 1 -4 4 h -319 a 4 4 0 0 1 -4 -4 v -61 a 4 4 0 0 1 4 -4 Z"/></clipPath><clipPath id="clip-16"><path d="M 1468 323.75 h 284 a 4 4 0 0 1 4 4 v 85 a 4 4 0 0 1 -4 4 h -284 a 4 4 0 0 1 -4 -4 v -85 a 4 4 0 0 1 4 -4 Z"/></clipPath></defs><path d="M 18 36 h 673 a 4 4 0 0 1 4 4 v 284.75 a 4 4 0 0 1 -4 4 h -673 a 4 4 0 0 1 -4 -4 v -284.75 a 4 4 0 0 1 4 -4 Z" fill="rgba(0, 0, 0, 0.08)" stroke="none"/><path d="M 16 34 h 671 a 4 4 0 0 1 4 4 v 282.75 a 4 4 0 0 1 -4 4 h -671 a 4 4 0 0 1 -4 -4 v -282.75 a 4 4 0 0 1 4 -4 Z" fill="#F1EEF7" stroke="none"/><g clip-path="url(#clip-1)"></g><text x="352" y="61" fill="#43346A" font-family="'Geist Mono', ui-monospace, SFMono-Regular, Menlo, Monaco, Consolas, 'Liberation Mono', 'Courier New', monospace" font-size="14" font-weight="300" text-anchor="middle" dominant-baseline="alphabetic">Input Layer</text><path d="M 16 34 h 671 a 4 4 0 0 1 4 4 v 282.75 a 4 4 0 0 1 -4 4 h -671 a 4 4 0 0 1 -4 -4 v -282.75 a 4 4 0 0 1 4 -4 Z" stroke="#B1A6C6" stroke-width="1.5" stroke-linecap="round" stroke-linejoin="round" fill="none"/><path d="M 28 202.5 h 292 a 4 4 0 0 1 4 4 v 85 a 4 4 0 0 1 -4 4 h -292 a 4 4 0 0 1 -4 -4 v -85 a 4 4 0 0 1 4 -4 Z" fill="#dcd6eb" stroke="none"/><g clip-path="url(#clip-2)"><rect x="24" y="202.5" width="300" height="94" fill="#dcd6eb" stroke="none"/></g><text x="174" y="253" fill="#43346A" font-family="'Geist Mono', ui-monospace, SFMono-Regular, Menlo, Monaco, Consolas, 'Liberation Mono', 'Courier New', monospace" font-size="14" font-weight="300" text-anchor="middle" dominant-baseline="alphabetic">Collects temperature and light</text><text x="174" y="277" fill="#43346A" font-family="'Geist Mono', ui-monospace, SFMono-Regular, Menlo, Monaco, Consolas, 'Liberation Mono', 'Courier New', monospace" font-size="14" font-weight="300" text-anchor="middle" dominant-baseline="alphabetic">readings</text><path d="M 28 202.5 h 292 a 4 4 0 0 1 4 4 v 85 a 4 4 0 0 1 -4 4 h -292 a 4 4 0 0 1 -4 -4 v -85 a 4 4 0 0 1 4 -4 Z" stroke="#A196BA" stroke-width="1" stroke-linecap="round" stroke-linejoin="round" fill="none"/><path d="M 348 214.5 h 327 a 4 4 0 0 1 4 4 v 61 a 4 4 0 0 1 -4 4 h -327 a 4 4 0 0 1 -4 -4 v -61 a 4 4 0 0 1 4 -4 Z" fill="#dbcdf4" stroke="none"/><g clip-path="url(#clip-3)"><rect x="344" y="214.5" width="335" height="70" fill="#dbcdf4" stroke="none"/></g><text x="512" y="241" fill="#401C81" font-family="'Geist Mono', ui-monospace, SFMono-Regular, Menlo, Monaco, Consolas, 'Liberation Mono', 'Courier New', monospace" font-size="14" font-weight="300" text-anchor="middle" dominant-baseline="alphabetic">USB Serial</text><text x="512" y="265" fill="#401C81" font-family="'Geist Mono', ui-monospace, SFMono-Regular, Menlo, Monaco, Consolas, 'Liberation Mono', 'Courier New', monospace" font-size="14" font-weight="300" text-anchor="middle" dominant-baseline="alphabetic">Transfers data to desktop application</text><path d="M 348 214.5 h 327 a 4 4 0 0 1 4 4 v 61 a 4 4 0 0 1 -4 4 h -327 a 4 4 0 0 1 -4 -4 v -61 a 4 4 0 0 1 4 -4 Z" stroke="#9F87CA" stroke-width="1" stroke-linecap="round" stroke-linejoin="round" fill="none"/><path d="M 398 108.25 h 277 a 4 4 0 0 1 4 4 v 61 a 4 4 0 0 1 -4 4 h -277 a 4 4 0 0 1 -4 -4 v -61 a 4 4 0 0 1 4 -4 Z" fill="#dcd6eb" stroke="none"/><g clip-path="url(#clip-4)"><rect x="394" y="108.25" width="285" height="70" fill="#dcd6eb" stroke="none"/></g><text x="537" y="135" fill="#43346A" font-family="'Geist Mono', ui-monospace, SFMono-Regular, Menlo, Monaco, Consolas, 'Liberation Mono', 'Courier New', monospace" font-size="14" font-weight="300" text-anchor="middle" dominant-baseline="alphabetic">Simulator</text><text x="537" y="159" fill="#43346A" font-family="'Geist Mono', ui-monospace, SFMono-Regular, Menlo, Monaco, Consolas, 'Liberation Mono', 'Courier New', monospace" font-size="14" font-weight="300" text-anchor="middle" dominant-baseline="alphabetic">Generates fake data for testing</text><path d="M 398 108.25 h 277 a 4 4 0 0 1 4 4 v 61 a 4 4 0 0 1 -4 4 h -277 a 4 4 0 0 1 -4 -4 v -61 a 4 4 0 0 1 4 -4 Z" stroke="#A196BA" stroke-width="1" stroke-linecap="round" stroke-linejoin="round" fill="none"/><path d="M 727 119.75 h 675 a 4 4 0 0 1 4 4 v 322.75 a 4 4 0 0 1 -4 4 h -675 a 4 4 0 0 1 -4 -4 v -322.75 a 4 4 0 0 1 4 -4 Z" fill="rgba(0, 0, 0, 0.08)" stroke="none"/><path d="M 725 117.75 h 673 a 4 4 0 0 1 4 4 v 320.75 a 4 4 0 0 1 -4 4 h -673 a 4 4 0 0 1 -4 -4 v -320.75 a 4 4 0 0 1 4 -4 Z" fill="#F7EEF1" stroke="none"/><g clip-path="url(#clip-5)"></g><text x="1062" y="144" fill="#6A3448" font-family="'Geist Mono', ui-monospace, SFMono-Regular, Menlo, Monaco, Consolas, 'Liberation Mono', 'Courier New', monospace" font-size="14" font-weight="300" text-anchor="middle" dominant-baseline="alphabetic">Processing Layer</text><path d="M 725 117.75 h 673 a 4 4 0 0 1 4 4 v 320.75 a 4 4 0 0 1 -4 4 h -673 a 4 4 0 0 1 -4 -4 v -320.75 a 4 4 0 0 1 4 -4 Z" stroke="#C6A6B1" stroke-width="1.5" stroke-linecap="round" stroke-linejoin="round" fill="none"/><path d="M 737 209.5 h 302 a 4 4 0 0 1 4 4 v 61 a 4 4 0 0 1 -4 4 h -302 a 4 4 0 0 1 -4 -4 v -61 a 4 4 0 0 1 4 -4 Z" fill="#ebd6de" stroke="none"/><g clip-path="url(#clip-6)"><rect x="733" y="209.5" width="310" height="70" fill="#ebd6de" stroke="none"/></g><text x="888" y="236" fill="#6A3448" font-family="'Geist Mono', ui-monospace, SFMono-Regular, Menlo, Monaco, Consolas, 'Liberation Mono', 'Courier New', monospace" font-size="14" font-weight="300" text-anchor="middle" dominant-baseline="alphabetic">Data Processor</text><text x="888" y="260" fill="#6A3448" font-family="'Geist Mono', ui-monospace, SFMono-Regular, Menlo, Monaco, Consolas, 'Liberation Mono', 'Courier New', monospace" font-size="14" font-weight="300" text-anchor="middle" dominant-baseline="alphabetic">Parses and validates incoming data</text><path d="M 737 209.5 h 302 a 4 4 0 0 1 4 4 v 61 a 4 4 0 0 1 -4 4 h -302 a 4 4 0 0 1 -4 -4 v -61 a 4 4 0 0 1 4 -4 Z" stroke="#BA96A4" stroke-width="1" stroke-linecap="round" stroke-linejoin="round" fill="none"/><path d="M 1067 323.25 h 319 a 4 4 0 0 1 4 4 v 86 a 4 4 0 0 1 -4 4 h -319 a 4 4 0 0 1 -4 -4 v -86 a 4 4 0 0 1 4 -4 Z" fill="#ebd6de" stroke="none"/><g clip-path="url(#clip-7)"><rect x="1063" y="323.25" width="327" height="95" fill="#ebd6de" stroke="none"/></g><text x="1227" y="350" fill="#6A3448" font-family="'Geist Mono', ui-monospace, SFMono-Regular, Menlo, Monaco, Consolas, 'Liberation Mono', 'Courier New', monospace" font-size="14" font-weight="300" text-anchor="middle" dominant-baseline="alphabetic">Risk Engine</text><text x="1227" y="374" fill="#6A3448" font-family="'Geist Mono', ui-monospace, SFMono-Regular, Menlo, Monaco, Consolas, 'Liberation Mono', 'Courier New', monospace" font-size="14" font-weight="300" text-anchor="middle" dominant-baseline="alphabetic">Scores readings with adaptive memory</text><text x="1227" y="399" fill="#6A3448" font-family="'Geist Mono', ui-monospace, SFMono-Regular, Menlo, Monaco, Consolas, 'Liberation Mono', 'Courier New', monospace" font-size="14" font-weight="300" text-anchor="middle" dominant-baseline="alphabetic">and context weighting</text><path d="M 1067 323.25 h 319 a 4 4 0 0 1 4 4 v 86 a 4 4 0 0 1 -4 4 h -319 a 4 4 0 0 1 -4 -4 v -86 a 4 4 0 0 1 4 -4 Z" stroke="#BA96A4" stroke-width="1" stroke-linecap="round" stroke-linejoin="round" fill="none"/><path d="M 1084 192 h 285 a 4 4 0 0 1 4 4 v 86 a 4 4 0 0 1 -4 4 h -285 a 4 4 0 0 1 -4 -4 v -86 a 4 4 0 0 1 4 -4 Z" fill="#f4cde0" stroke="none"/><g clip-path="url(#clip-8)"><rect x="1080" y="192" width="293" height="95" fill="#f4cde0" stroke="none"/></g><text x="1227" y="219" fill="#811C4D" font-family="'Geist Mono', ui-monospace, SFMono-Regular, Menlo, Monaco, Consolas, 'Liberation Mono', 'Courier New', monospace" font-size="14" font-weight="300" text-anchor="middle" dominant-baseline="alphabetic">Wildfire Model</text><text x="1227" y="243" fill="#811C4D" font-family="'Geist Mono', ui-monospace, SFMono-Regular, Menlo, Monaco, Consolas, 'Liberation Mono', 'Courier New', monospace" font-size="14" font-weight="300" text-anchor="middle" dominant-baseline="alphabetic">Produces Fire-Weather Risk Score</text><text x="1227" y="268" fill="#811C4D" font-family="'Geist Mono', ui-monospace, SFMono-Regular, Menlo, Monaco, Consolas, 'Liberation Mono', 'Courier New', monospace" font-size="14" font-weight="300" text-anchor="middle" dominant-baseline="alphabetic">0–100</text><path d="M 1084 192 h 285 a 4 4 0 0 1 4 4 v 86 a 4 4 0 0 1 -4 4 h -285 a 4 4 0 0 1 -4 -4 v -86 a 4 4 0 0 1 4 -4 Z" stroke="#CA87A8" stroke-width="1" stroke-linecap="round" stroke-linejoin="round" fill="none"/><path d="M 1458 468 h 328 a 4 4 0 0 1 4 4 v 379 a 4 4 0 0 1 -4 4 h -328 a 4 4 0 0 1 -4 -4 v -379 a 4 4 0 0 1 4 -4 Z" fill="rgba(0, 0, 0, 0.08)" stroke="none"/><path d="M 1456 466 h 326 a 4 4 0 0 1 4 4 v 377 a 4 4 0 0 1 -4 4 h -326 a 4 4 0 0 1 -4 -4 v -377 a 4 4 0 0 1 4 -4 Z" fill="#FAEAFA" stroke="none"/><g clip-path="url(#clip-9)"></g><text x="1619" y="493" fill="#811C7E" font-family="'Geist Mono', ui-monospace, SFMono-Regular, Menlo, Monaco, Consolas, 'Liberation Mono', 'Courier New', monospace" font-size="14" font-weight="300" text-anchor="middle" dominant-baseline="alphabetic">Storage Layer</text><path d="M 1456 466 h 326 a 4 4 0 0 1 4 4 v 377 a 4 4 0 0 1 -4 4 h -326 a 4 4 0 0 1 -4 -4 v -377 a 4 4 0 0 1 4 -4 Z" stroke="#D19AD1" stroke-width="1.5" stroke-linecap="round" stroke-linejoin="round" fill="none"/><path d="M 1468 646.5 h 252 a 4 4 0 0 1 4 4 v 61 a 4 4 0 0 1 -4 4 h -252 a 4 4 0 0 1 -4 -4 v -61 a 4 4 0 0 1 4 -4 Z" fill="#f4cdf3" stroke="none"/><g clip-path="url(#clip-10)"><rect x="1464" y="646.5" width="260" height="70" fill="#f4cdf3" stroke="none"/></g><text x="1594" y="673" fill="#811C7E" font-family="'Geist Mono', ui-monospace, SFMono-Regular, Menlo, Monaco, Consolas, 'Liberation Mono', 'Courier New', monospace" font-size="14" font-weight="300" text-anchor="middle" dominant-baseline="alphabetic">CSV Storage</text><text x="1594" y="697" fill="#811C7E" font-family="'Geist Mono', ui-monospace, SFMono-Regular, Menlo, Monaco, Consolas, 'Liberation Mono', 'Courier New', monospace" font-size="14" font-weight="300" text-anchor="middle" dominant-baseline="alphabetic">Appends timestamped readings</text><path d="M 1468 646.5 h 252 a 4 4 0 0 1 4 4 v 61 a 4 4 0 0 1 -4 4 h -252 a 4 4 0 0 1 -4 -4 v -61 a 4 4 0 0 1 4 -4 Z" stroke="#CA87C8" stroke-width="1" stroke-linecap="round" stroke-linejoin="round" fill="none"/><path d="M 1468 752.75 h 302 a 4 4 0 0 1 4 4 v 61 a 4 4 0 0 1 -4 4 h -302 a 4 4 0 0 1 -4 -4 v -61 a 4 4 0 0 1 4 -4 Z" fill="#f4cdf3" stroke="none"/><g clip-path="url(#clip-11)"><rect x="1464" y="752.75" width="310" height="70" fill="#f4cdf3" stroke="none"/></g><text x="1619" y="779" fill="#811C7E" font-family="'Geist Mono', ui-monospace, SFMono-Regular, Menlo, Monaco, Consolas, 'Liberation Mono', 'Courier New', monospace" font-size="14" font-weight="300" text-anchor="middle" dominant-baseline="alphabetic">Session Storage</text><text x="1619" y="804" fill="#811C7E" font-family="'Geist Mono', ui-monospace, SFMono-Regular, Menlo, Monaco, Consolas, 'Liberation Mono', 'Courier New', monospace" font-size="14" font-weight="300" text-anchor="middle" dominant-baseline="alphabetic">Tracks sessions with JSON metadata</text><path d="M 1468 752.75 h 302 a 4 4 0 0 1 4 4 v 61 a 4 4 0 0 1 -4 4 h -302 a 4 4 0 0 1 -4 -4 v -61 a 4 4 0 0 1 4 -4 Z" stroke="#CA87C8" stroke-width="1" stroke-linecap="round" stroke-linejoin="round" fill="none"/><path d="M 1527 540.25 h 243 a 4 4 0 0 1 4 4 v 61 a 4 4 0 0 1 -4 4 h -243 a 4 4 0 0 1 -4 -4 v -61 a 4 4 0 0 1 4 -4 Z" fill="#f4cdf3" stroke="none"/><g clip-path="url(#clip-12)"><rect x="1523" y="540.25" width="251" height="70" fill="#f4cdf3" stroke="none"/></g><text x="1649" y="567" fill="#811C7E" font-family="'Geist Mono', ui-monospace, SFMono-Regular, Menlo, Monaco, Consolas, 'Liberation Mono', 'Courier New', monospace" font-size="14" font-weight="300" text-anchor="middle" dominant-baseline="alphabetic">Settings Storage</text><text x="1649" y="591" fill="#811C7E" font-family="'Geist Mono', ui-monospace, SFMono-Regular, Menlo, Monaco, Consolas, 'Liberation Mono', 'Courier New', monospace" font-size="14" font-weight="300" text-anchor="middle" dominant-baseline="alphabetic">Persists user configuration</text><path d="M 1527 540.25 h 243 a 4 4 0 0 1 4 4 v 61 a 4 4 0 0 1 -4 4 h -243 a 4 4 0 0 1 -4 -4 v -61 a 4 4 0 0 1 4 -4 Z" stroke="#CA87C8" stroke-width="1" stroke-linecap="round" stroke-linejoin="round" fill="none"/><path d="M 1458 14 h 345 a 4 4 0 0 1 4 4 v 428 a 4 4 0 0 1 -4 4 h -345 a 4 4 0 0 1 -4 -4 v -428 a 4 4 0 0 1 4 -4 Z" fill="rgba(0, 0, 0, 0.08)" stroke="none"/><path d="M 1456 12 h 343 a 4 4 0 0 1 4 4 v 426 a 4 4 0 0 1 -4 4 h -343 a 4 4 0 0 1 -4 -4 v -426 a 4 4 0 0 1 4 -4 Z" fill="#EEF7F1" stroke="none"/><g clip-path="url(#clip-13)"></g><text x="1628" y="39" fill="#346A46" font-family="'Geist Mono', ui-monospace, SFMono-Regular, Menlo, Monaco, Consolas, 'Liberation Mono', 'Courier New', monospace" font-size="14" font-weight="300" text-anchor="middle" dominant-baseline="alphabetic">Output Layer</text><path d="M 1456 12 h 343 a 4 4 0 0 1 4 4 v 426 a 4 4 0 0 1 -4 4 h -343 a 4 4 0 0 1 -4 -4 v -426 a 4 4 0 0 1 4 -4 Z" stroke="#A6C6B1" stroke-width="1.5" stroke-linecap="round" stroke-linejoin="round" fill="none"/><path d="M 1468 86.25 h 243 a 4 4 0 0 1 4 4 v 86 a 4 4 0 0 1 -4 4 h -243 a 4 4 0 0 1 -4 -4 v -86 a 4 4 0 0 1 4 -4 Z" fill="#d6ebdd" stroke="none"/><g clip-path="url(#clip-14)"><rect x="1464" y="86.25" width="251" height="95" fill="#d6ebdd" stroke="none"/></g><text x="1590" y="113" fill="#346A46" font-family="'Geist Mono', ui-monospace, SFMono-Regular, Menlo, Monaco, Consolas, 'Liberation Mono', 'Courier New', monospace" font-size="14" font-weight="300" text-anchor="middle" dominant-baseline="alphabetic">GUI</text><text x="1590" y="137" fill="#346A46" font-family="'Geist Mono', ui-monospace, SFMono-Regular, Menlo, Monaco, Consolas, 'Liberation Mono', 'Courier New', monospace" font-size="14" font-weight="300" text-anchor="middle" dominant-baseline="alphabetic">Displays dashboard, graphs,</text><text x="1590" y="162" fill="#346A46" font-family="'Geist Mono', ui-monospace, SFMono-Regular, Menlo, Monaco, Consolas, 'Liberation Mono', 'Courier New', monospace" font-size="14" font-weight="300" text-anchor="middle" dominant-baseline="alphabetic">alerts, and feedback</text><path d="M 1468 86.25 h 243 a 4 4 0 0 1 4 4 v 86 a 4 4 0 0 1 -4 4 h -243 a 4 4 0 0 1 -4 -4 v -86 a 4 4 0 0 1 4 -4 Z" stroke="#96BAA2" stroke-width="1" stroke-linecap="round" stroke-linejoin="round" fill="none"/><path d="M 1468 217.5 h 319 a 4 4 0 0 1 4 4 v 61 a 4 4 0 0 1 -4 4 h -319 a 4 4 0 0 1 -4 -4 v -61 a 4 4 0 0 1 4 -4 Z" fill="#d6ebdd" stroke="none"/><g clip-path="url(#clip-15)"><rect x="1464" y="217.5" width="327" height="70" fill="#d6ebdd" stroke="none"/></g><text x="1628" y="244" fill="#346A46" font-family="'Geist Mono', ui-monospace, SFMono-Regular, Menlo, Monaco, Consolas, 'Liberation Mono', 'Courier New', monospace" font-size="14" font-weight="300" text-anchor="middle" dominant-baseline="alphabetic">Alert Manager</text><text x="1628" y="268" fill="#346A46" font-family="'Geist Mono', ui-monospace, SFMono-Regular, Menlo, Monaco, Consolas, 'Liberation Mono', 'Courier New', monospace" font-size="14" font-weight="300" text-anchor="middle" dominant-baseline="alphabetic">Triggers audible and visual warnings</text><path d="M 1468 217.5 h 319 a 4 4 0 0 1 4 4 v 61 a 4 4 0 0 1 -4 4 h -319 a 4 4 0 0 1 -4 -4 v -61 a 4 4 0 0 1 4 -4 Z" stroke="#96BAA2" stroke-width="1" stroke-linecap="round" stroke-linejoin="round" fill="none"/><path d="M 1468 323.75 h 284 a 4 4 0 0 1 4 4 v 85 a 4 4 0 0 1 -4 4 h -284 a 4 4 0 0 1 -4 -4 v -85 a 4 4 0 0 1 4 -4 Z" fill="#d6ebdd" stroke="none"/><g clip-path="url(#clip-16)"><rect x="1464" y="323.75" width="292" height="94" fill="#d6ebdd" stroke="none"/></g><text x="1610" y="374" fill="#346A46" font-family="'Geist Mono', ui-monospace, SFMono-Regular, Menlo, Monaco, Consolas, 'Liberation Mono', 'Courier New', monospace" font-size="14" font-weight="300" text-anchor="middle" dominant-baseline="alphabetic">Output</text><text x="1610" y="399" fill="#346A46" font-family="'Geist Mono', ui-monospace, SFMono-Regular, Menlo, Monaco, Consolas, 'Liberation Mono', 'Courier New', monospace" font-size="14" font-weight="300" text-anchor="middle" dominant-baseline="alphabetic">Displays LEDs and plays tones</text><path d="M 1468 323.75 h 284 a 4 4 0 0 1 4 4 v 85 a 4 4 0 0 1 -4 4 h -284 a 4 4 0 0 1 -4 -4 v -85 a 4 4 0 0 1 4 -4 Z" stroke="#96BAA2" stroke-width="1" stroke-linecap="round" stroke-linejoin="round" fill="none"/><path d="M324,249L344,249L344,249" stroke="#401C81" stroke-width="1" stroke-linecap="round" stroke-linejoin="round" fill="none"/><path d="M 344 249 L 338 253 L 338 245 Z" fill="#401C81" stroke="none"/><path d="M679,249L687.5,249C687.5,249,704.5,249,704.5,249L707.5,249C707.5,249,724.5,249,724.5,249L733,249" stroke="#6A3448" stroke-width="1" stroke-linecap="round" stroke-linejoin="round" fill="none"/><path d="M 733 249 L 727 253 L 727 245 Z" fill="#6A3448" stroke="none"/><path d="M679,142.75L691,142.75C691,142.75,701,142.75,701,142.75L701,142.75C703.761423749154,142.75,706,144.98857625084602,706,147.75L706,234C706,236.76142374915398,708.238576250846,239,711,239L711,239C711,239,721,239,721,239L733,239" stroke="#6A3448" stroke-width="1" stroke-linecap="round" stroke-linejoin="round" fill="none"/><path d="M 733 239 L 727 243 L 727 235 Z" fill="#6A3448" stroke="none"/><path d="M1043,249L1048,249C1050.761423749154,249,1053,251.23857625084602,1053,254L1053,360.25C1053,363.01142374915395,1055.238576250846,365.25,1058,365.25L1063,365.25" stroke="#6A3448" stroke-width="1" stroke-linecap="round" stroke-linejoin="round" fill="none"/><path d="M 1063 365.25 L 1057 369.25 L 1057 361.25 Z" fill="#6A3448" stroke="none"/><path d="M1043,239L1080,239L1080,239" stroke="#811C4D" stroke-width="1" stroke-linecap="round" stroke-linejoin="round" fill="none"/><path d="M 1080 239 L 1074 243 L 1074 235 Z" fill="#811C4D" stroke="none"/><path d="M1390,380.25L1398.5,380.25C1398.5,380.25,1415.5,380.25,1415.5,380.25L1419,380.25C1423.4182779986463,380.25,1427,383.8317220013536,1427,388.25L1427,673C1427,677.4182779986463,1430.5817220013537,681,1435,681L1438.5,681C1438.5,681,1455.5,681,1455.5,681L1464,681" stroke="#811C7E" stroke-width="1" stroke-linecap="round" stroke-linejoin="round" fill="none"/><path d="M 1464 681 L 1458 685 L 1458 677 Z" fill="#811C7E" stroke="none"/><path d="M1390,390.25L1402,390.25C1402,390.25,1412,390.25,1412,390.25L1412,390.25C1414.761423749154,390.25,1417,392.48857625084605,1417,395.25L1417,779.25C1417,783.6682779986463,1420.5817220013537,787.25,1425,787.25L1438.5,787.25C1438.5,787.25,1455.5,787.25,1455.5,787.25L1464,787.25" stroke="#811C7E" stroke-width="1" stroke-linecap="round" stroke-linejoin="round" fill="none"/><path d="M 1464 787.25 L 1458 791.25 L 1458 783.25 Z" fill="#811C7E" stroke="none"/><path d="M1774,574.75L1782.5,574.75C1782.5,574.75,1799.5,574.75,1799.5,574.75L1805,574.75C1809.4182779986463,574.75,1813,578.3317220013537,1813,582.75L1813,853C1813,857.4182779986463,1809.4182779986463,861,1805,861L1719,861C1719,861,1531,861,1531,861L1239.25,861C1239.25,861,883.75,861,883.75,861L714,861C709.5817220013537,861,706,857.4182779986463,706,853L706,380.25C706,377.48857625084605,708.238576250846,375.25,711,375.25L711,375.25C711,375.25,721,375.25,721,375.25L802,375.25C802,375.25,974,375.25,974,375.25L1063,375.25" stroke="#6A3448" stroke-width="1" stroke-linecap="round" stroke-linejoin="round" fill="none"/><path d="M 1063 375.25 L 1057 379.25 L 1057 371.25 Z" fill="#6A3448" stroke="none"/><path d="M1390,350.25L1398.5,350.25C1398.5,350.25,1415.5,350.25,1415.5,350.25L1419,350.25C1423.4182779986463,350.25,1427,346.6682779986464,1427,342.25L1427,146.25C1427,141.83172200135365,1430.5817220013537,138.25,1435,138.25L1438.5,138.25C1438.5,138.25,1455.5,138.25,1455.5,138.25L1464,138.25" stroke="#346A46" stroke-width="1" stroke-linecap="round" stroke-linejoin="round" fill="none"/><path d="M 1464 138.25 L 1458 142.25 L 1458 134.25 Z" fill="#346A46" stroke="none"/><path d="M1373,239L1402,239C1402,239,1412,239,1412,239L1412,239C1414.761423749154,239,1417,236.76142374915398,1417,234L1417,136.25C1417,131.83172200135365,1420.5817220013537,128.25,1425,128.25L1438.5,128.25C1438.5,128.25,1455.5,128.25,1455.5,128.25L1464,128.25" stroke="#346A46" stroke-width="1" stroke-linecap="round" stroke-linejoin="round" fill="none"/><path d="M 1464 128.25 L 1458 132.25 L 1458 124.25 Z" fill="#346A46" stroke="none"/><path d="M1390,360.25L1398.5,360.25C1398.5,360.25,1415.5,360.25,1415.5,360.25L1429,360.25C1433.4182779986463,360.25,1437,356.6682779986464,1437,352.25L1437,257C1437,254.23857625084602,1439.238576250846,252,1442,252L1442,252C1442,252,1452,252,1452,252L1464,252" stroke="#346A46" stroke-width="1" stroke-linecap="round" stroke-linejoin="round" fill="none"/><path d="M 1464 252 L 1458 256 L 1458 248 Z" fill="#346A46" stroke="none"/><path d="M1390,370.25L1398.5,370.25C1398.5,370.25,1415.5,370.25,1415.5,370.25L1438.5,370.25C1438.5,370.25,1455.5,370.25,1455.5,370.25L1464,370.25" stroke="#346A46" stroke-width="1" stroke-linecap="round" stroke-linejoin="round" fill="none"/><path d="M 1464 370.25 L 1458 374.25 L 1458 366.25 Z" fill="#346A46" stroke="none"/></svg>